<?xml version="1.0" standalone="no"?>
<!DOCTYPE svg PUBLIC "-//W3C//DTD SVG 20010904//EN"
 "http://www.w3.org/TR/2001/REC-SVG-20010904/DTD/svg10.dtd">
<svg version="1.0" xmlns="http://www.w3.org/2000/svg"
 width="512.000000pt" height="512.000000pt" viewBox="0 0 512.000000 512.000000"
 preserveAspectRatio="xMidYMid meet">

<g transform="translate(0.000000,512.000000) scale(0.100000,-0.100000)"
fill="#000000" stroke="none">
<path d="M555 4159 c-15 -28 -36 -85 -48 -127 -21 -77 -21 -84 -25 -1222 l-3
-1145 508 506 c471 469 513 508 572 533 131 58 271 58 402 0 58 -25 97 -61
449 -410 424 -421 420 -418 513 -393 35 9 76 44 262 228 185 183 230 223 285
249 135 65 282 66 420 1 58 -27 101 -67 408 -372 l343 -342 -3 1145 c-4 1138
-4 1145 -25 1222 -12 42 -33 99 -48 127 l-25 51 -1980 0 -1980 0 -25 -51z
m2869 -339 c133 -42 257 -157 306 -287 31 -81 38 -211 15 -288 -51 -178 -179
-305 -350 -350 -251 -65 -516 92 -581 345 -22 86 -15 214 16 293 50 130 171
244 303 286 85 27 205 27 291 1z"/>
</g>
</svg>
